<svg width="307" height="346" viewBox="0 0 307 346" fill="none" xmlns="http://www.w3.org/2000/svg">
<g filter="url(#filter0_d_125_22)">
<path d="M119.248 19.7491L50.9242 59.1959L119.425 98.1834L187.708 59.2405L119.248 19.7491Z" fill="#97D902"/>
<path d="M51.162 137.678L119.486 177.125L119.425 98.1832L51.162 58.7841L51.162 137.678Z" fill="#A5ED00"/>
<path d="M51.162 137.678L119.486 177.125L119.425 98.1832L51.162 58.7841L51.162 137.678Z" fill="#A5ED00"/>
<path d="M187.708 59.2403L119.425 98.183L187.748 138.119L256.072 98.6722L187.708 59.2403Z" fill="#333333"/>
<path d="M187.708 59.2403L119.425 98.183L187.748 138.119L256.072 98.6722L187.708 59.2403Z" fill="#333333"/>
<path d="M255.835 177.154L255.835 98.2605L187.175 137.66L187.175 216.612L255.835 177.154Z" fill="#404040"/>
<path d="M51.1416 216.553L119.465 256L119.465 177.106L51.1416 137.659L51.1416 216.553Z" fill="#3C88CA"/>
<path d="M187.314 216.553V137.659L118.99 177.106L118.99 256L187.314 216.553Z" fill="#3E8DD1"/>
<path d="M187.314 216.553V137.659L118.99 177.106L118.99 256L187.314 216.553Z" fill="#3E8DD1"/>
</g>
<defs>
<filter id="filter0_d_125_22" x="0.924316" y="9.74902" width="305.148" height="336.251" filterUnits="userSpaceOnUse" color-interpolation-filters="sRGB">
<feFlood flood-opacity="0" result="BackgroundImageFix"/>
<feColorMatrix in="SourceAlpha" type="matrix" values="0 0 0 0 0 0 0 0 0 0 0 0 0 0 0 0 0 0 127 0" result="hardAlpha"/>
<feOffset dy="40"/>
<feGaussianBlur stdDeviation="25"/>
<feColorMatrix type="matrix" values="0 0 0 0 0.491667 0 0 0 0 0.491667 0 0 0 0 0.491667 0 0 0 0.27 0"/>
<feBlend mode="normal" in2="BackgroundImageFix" result="effect1_dropShadow_125_22"/>
<feBlend mode="normal" in="SourceGraphic" in2="effect1_dropShadow_125_22" result="shape"/>
</filter>
</defs>
</svg>
